<?xml version="1.0" encoding="UTF-8"?>
<svg width="277px" height="89px" viewBox="0 0 277 89" version="1.1" xmlns="http://www.w3.org/2000/svg" xmlns:xlink="http://www.w3.org/1999/xlink">
    <title>Group 17</title>
    <defs>
        <polygon id="path-1" points="0 0.31438961 276.83636 0.31438961 276.83636 89 0 89"></polygon>
        <polygon id="path-3" points="0 0.786123932 25.8394308 0.786123932 25.8394308 23.3477714 0 23.3477714"></polygon>
    </defs>
    <g id="Pages" stroke="none" stroke-width="1" fill="none" fill-rule="evenodd">
        <g id="Neue-Haas-Grotesk-+-Freight-Text" transform="translate(-422.000000, -50.000000)">
            <g id="Group-17" transform="translate(422.000000, 50.000000)">
                <g id="Group-3">
                    <mask id="mask-2" fill="white">
                        <use xlink:href="#path-1"></use>
                    </mask>
                    <g id="Clip-2"></g>
                    <path d="M-0.000230607606,0.313349351 L88.4712245,0.313349351 L88.4677654,89.0001156 L-0.000230607606,89.0001156 L-0.000230607606,0.313349351 Z M203.430269,53.5018299 L203.430269,51.5276481 L200.908575,51.5276481 L200.908575,51.3311545 C200.908575,50.4030117 201.22912,49.9580117 202.169999,49.9580117 C202.578174,49.9580117 202.969054,50.0111805 203.519053,50.1001805 L203.519053,47.9295052 C202.934463,47.8405052 202.435197,47.7711545 201.779119,47.7711545 C199.951554,47.7711545 198.566755,48.7663364 198.566755,51.0803364 L198.566755,51.5276481 L196.773781,51.5276481 L196.773781,53.5018299 L198.566755,53.5018299 L198.566755,60.4276481 L200.908575,60.4276481 L200.908575,53.5018299 L203.430269,53.5018299 Z M203.255008,55.9764922 C203.255008,58.7562974 205.297038,60.6403234 208.030891,60.6403234 C210.768203,60.6403234 212.807928,58.7562974 212.807928,55.9764922 C212.807928,53.1978429 210.768203,51.312661 208.030891,51.312661 C205.297038,51.312661 203.255008,53.1978429 203.255008,55.9764922 L203.255008,55.9764922 Z M210.394619,55.9764922 C210.394619,57.4028039 209.363803,58.3459727 208.030891,58.3459727 C206.700285,58.3459727 205.669469,57.4028039 205.669469,55.9764922 C205.669469,54.5524922 206.700285,53.6070117 208.030891,53.6070117 C209.363803,53.6070117 210.394619,54.5524922 210.394619,55.9764922 L210.394619,55.9764922 Z M216.095239,52.9851675 L216.095239,51.5276481 L213.839897,51.5276481 L213.839897,60.4276481 L216.184023,60.4276481 L216.184023,56.4029987 C216.184023,54.6935052 216.875846,53.8208429 218.42207,53.8208429 C218.793348,53.8208429 219.166932,53.856674 219.486324,53.9641675 L219.486324,51.4374922 C219.201523,51.3658299 218.936325,51.312661 218.61578,51.312661 C217.373958,51.312661 216.574903,51.9541545 216.095239,52.9851675 L216.095239,52.9851675 Z M229.681486,53.5908299 C230.997103,53.5908299 232.00947,54.4981675 232.00947,55.9764922 C232.00947,57.4374792 230.997103,58.3644662 229.681486,58.3644662 C228.349727,58.3644662 227.353502,57.4189857 227.353502,55.9764922 C227.353502,54.5339987 228.349727,53.5908299 229.681486,53.5908299 L229.681486,53.5908299 Z M231.937982,47.9664922 L231.937982,52.8071675 C231.33379,51.9541545 230.338718,51.2953234 228.953919,51.2953234 C226.787361,51.2953234 224.941347,52.9678299 224.941347,55.9764922 C224.941347,58.9874662 226.787361,60.657661 228.98851,60.657661 C230.285678,60.657661 231.299199,60.0901416 231.937982,59.1828039 L231.937982,60.4276481 L234.282108,60.4276481 L234.282108,47.9664922 L231.937982,47.9664922 Z M235.436299,55.9764922 C235.436299,58.6303104 237.194682,60.6403234 240.19604,60.6403234 C241.901383,60.6403234 243.002535,60.0704922 243.731255,59.4671416 L242.753478,57.5253234 C242.131991,58.0604792 241.297191,58.4349727 240.231784,58.4349727 C239.200968,58.4349727 238.135561,57.9183104 237.851914,56.7243234 L237.833465,56.6873364 L244.371191,56.6873364 L244.371191,56.0481545 C244.371191,53.1805052 242.700439,51.312661 239.983881,51.312661 C237.194682,51.312661 235.436299,53.3400117 235.436299,55.9764922 L235.436299,55.9764922 Z M241.813752,54.9801545 L237.817323,54.9801545 C238.04793,53.9109987 238.792793,53.3064922 239.912393,53.3064922 C241.048135,53.3064922 241.705367,54.0184922 241.813752,54.9801545 L241.813752,54.9801545 Z M245.31207,54.1421675 C245.31207,56.0839857 246.945925,56.6884922 248.260388,56.9578039 C249.752419,57.2768169 250.232083,57.3831545 250.232083,57.8651416 C250.232083,58.3644662 249.699379,58.5413104 249.040995,58.5413104 C247.796867,58.5413104 246.821397,58.0963104 246.2345,57.3831545 L244.86815,59.1643104 C245.64991,60.1594922 247.105044,60.6403234 248.81154,60.6403234 C251.174115,60.6403234 252.646545,59.7688169 252.646545,57.7414662 C252.646545,55.8701545 251.351683,55.2829857 249.805459,54.9443234 C248.223491,54.605661 247.743827,54.4981675 247.743827,54.0531675 C247.743827,53.6613364 248.152002,53.4290117 248.881875,53.4290117 C249.823908,53.4290117 250.783235,53.7873234 251.279042,54.3375052 L252.592352,52.6303234 C251.812898,51.8293234 250.677156,51.312661 249.059443,51.312661 C246.73146,51.312661 245.31207,52.3459857 245.31207,54.1421675 L245.31207,54.1421675 Z M253.695809,48.9790117 C253.695809,49.8343364 254.335745,50.4735182 255.186687,50.4735182 C256.039936,50.4735182 256.694861,49.8343364 256.694861,48.9790117 C256.694861,48.1259987 256.039936,47.4671675 255.186687,47.4671675 C254.335745,47.4671675 253.695809,48.1259987 253.695809,48.9790117 L253.695809,48.9790117 Z M254.015201,60.4276481 L256.357021,60.4276481 L256.357021,51.5276481 L254.015201,51.5276481 L254.015201,60.4276481 Z M264.635834,55.9764922 C264.635834,57.4374792 263.660364,58.3644662 262.326299,58.3644662 C260.99454,58.3644662 259.999468,57.4189857 259.999468,55.9764922 C259.999468,54.5339987 260.99454,53.5908299 262.326299,53.5908299 C263.660364,53.5908299 264.635834,54.4981675 264.635834,55.9764922 L264.635834,55.9764922 Z M257.585007,55.940661 C257.585007,58.8984662 259.395276,60.5154922 261.757851,60.5154922 C263.03657,60.5154922 264.032795,59.9814922 264.619692,59.1458169 L264.619692,59.7168039 C264.619692,60.9974792 263.997051,62.0146221 262.005754,62.0146221 C260.923052,62.0146221 260.070957,61.6216351 259.324941,60.8899857 L258.171903,62.8318039 C259.094333,63.6848169 260.301564,64.2188169 262.095691,64.2188169 C265.825769,64.2188169 266.925768,62.1382974 266.925768,59.8393234 L266.925768,51.5276481 L264.582794,51.5276481 L264.582794,52.7724922 C264.086988,51.9714922 263.055019,51.312661 261.687516,51.312661 C259.485213,51.312661 257.585007,52.9678299 257.585007,55.940661 L257.585007,55.940661 Z M270.816118,52.8071675 L270.816118,51.5276481 L268.54348,51.5276481 L268.54348,60.4276481 L270.886453,60.4276481 L270.886453,56.1718299 C270.886453,54.5871675 271.454901,53.5723364 272.823557,53.5723364 C273.818629,53.5723364 274.44127,54.1595052 274.44127,55.4945052 L274.44127,60.4276481 L276.837283,60.4276481 L276.837283,54.9073364 C276.837283,52.6649987 275.771875,51.312661 273.695254,51.312661 C272.398086,51.312661 271.437605,51.935661 270.816118,52.8071675 L270.816118,52.8071675 Z" id="Fill-1" fill="#000000" mask="url(#mask-2)"></path>
                </g>
                <path d="M37.77911,34.1335327 C37.2622564,34.3620862 37.0820377,34.6472008 36.947157,35.0615982 C36.8451464,35.3801878 32.8587993,52.5274673 32.7987264,52.8252794 C32.7159845,53.2154363 32.6978492,53.5444147 33.1364948,53.7187156 C33.5932755,53.9114854 35.8737789,54.7241198 36.0505973,54.8083845 C36.230816,54.8753345 36.1888783,55 35.9916578,55 L26.1941074,55 C26.0172891,55 25.9152785,54.9434388 26.0920969,54.8661 C26.2915842,54.7726009 28.4542087,53.9818983 28.6536961,53.9010966 C28.8894539,53.8087518 29.4459783,53.6032845 29.603528,53.0976966 C29.7044052,52.7237001 33.8108981,35.4956189 33.8902397,35.1631775 C33.9877165,34.7406999 33.9469122,34.3170681 33.453861,34.1439215 C33.1954342,34.0400336 30.6757727,33.1731465 30.5964311,33.1373629 C30.4581501,33.0888819 30.4581501,33 30.5782959,33 L40.855296,33 C40.970908,33 41.0729186,33.0808017 40.9301038,33.1258198 C40.7725541,33.1604491 39.0848456,33.6648827 38.9080272,33.7225982 C38.7096733,33.7907026 38.0953429,33.9823181 37.77911,34.1335327" id="Fill-4" fill="#FFFFFF"></path>
                <path d="M58.2294767,54.4162694 C57.9259884,54.534142 54.3594119,55.901464 50.9222296,55.9934046 C42.0716617,56.2303285 38.8391577,50.0408392 40.3624811,44.405351 C41.1447283,41.4337832 43.0785844,38.6484541 45.5511912,36.705914 C46.9686466,35.5990904 51.1469051,33 56.6285168,33 C57.6542604,33 60.2927271,33.1308386 62.225407,33.6329758 C63.1723377,33.8793295 63.0288277,34.4026837 62.924136,34.7904845 C62.8653204,34.9779019 60.7832491,41.2463658 60.7244335,41.4007789 C60.6409154,41.6329879 60.4350608,41.6435964 60.4350608,41.3878129 C60.4350608,41.2463658 60.7044362,35.6933885 60.6809099,35.4576433 C60.6809099,34.8729953 60.6809099,34.5099478 60.0233518,34.3119218 C59.1164156,34.0078106 54.7734735,33.6329758 51.5609668,35.132315 C46.1887521,37.6441797 43.0562345,43.4470469 43.6949716,48.0664734 C44.2113724,51.877294 47.2403745,54.9903089 52.0538413,55.11879 C53.5583437,55.1553305 54.6711344,54.9313726 54.9993253,54.826466 C55.4733789,54.6850189 55.5345471,54.5435718 55.6557071,54.2653925 C55.7415779,53.983677 56.5626433,50.5818743 56.5861696,50.4404272 C56.6285168,50.2871929 56.8320187,49.8074515 56.3367915,49.6695405 C55.8427407,49.538702 51.4798013,48.3576187 51.2539494,48.2986824 C51.0245687,48.2432823 51.1280841,48.1218735 51.2951203,48.1218735 L59.4857774,48.1218735 C59.8174973,48.1218735 60.6809099,48.0428989 60.4562344,48.8597559 C60.2068564,49.6931151 58.9717293,53.6088422 58.8670376,53.8787704 C58.7670511,54.1581285 58.521202,54.3113628 58.2294767,54.4162694" id="Fill-6" fill="#FFFFFF"></path>
                <g id="Group-10" transform="translate(0.000000, 32.000000)">
                    <mask id="mask-4" fill="white">
                        <use xlink:href="#path-3"></use>
                    </mask>
                    <g id="Clip-9"></g>
                    <path d="M25.7908696,23.2014857 C25.5429535,23.1089143 23.5970465,22.2917714 23.086012,22.0529143 C22.534048,21.7923429 22.4907796,21.3717714 22.4708996,21.0346286 C22.4708996,20.7272 22.7609145,1.01862857 22.6767166,0.857485714 C22.6369565,0.770628571 22.5141679,0.756914286 22.4124288,0.850628571 C22.0838231,1.16491429 2.6001949,21.9169143 2.25170915,22.1317714 C1.55824588,22.6666286 0.184182909,23.1180571 0.103493253,23.1534857 C0.103493253,23.1660571 0.0625637181,23.1763429 -0.000584707646,23.1889143 L-0.000584707646,23.3477714 C0.0625637181,23.3340571 0.103493253,23.3340571 0.122203898,23.3340571 L10.3978561,23.3340571 C10.5405247,23.3340571 10.5791154,23.2106286 10.4598351,23.1889143 C9.70088456,23.0380571 6.38793103,22.3694857 5.81491754,22.2026286 C5.25827586,22.0437714 5.1998051,21.7260571 5.42433283,21.4300571 C5.60910045,21.1466286 10.8504198,14.8186286 11.2363268,14.5340571 C11.7087706,14.1752 11.9134183,14.1272 12.7507196,14.1180571 C13.0185157,14.1054857 14.5726687,14.0712 16.0683508,14.1180571 C17.3161169,14.1397714 18.5241229,14.2426286 18.8726087,14.2734857 C19.6502699,14.3317714 19.5672414,14.9009143 19.5672414,15.1923429 C19.5672414,15.4654857 19.3403748,20.1032 19.3204948,20.8974857 C19.3006147,21.7123429 19.157946,21.8277714 18.6258621,22.0083429 C18.3604048,22.0872 14.8404648,23.1889143 14.7153373,23.2586286 C14.5925487,23.2997714 14.7586057,23.3340571 14.7586057,23.3340571 L25.6634033,23.3340571 C25.8294603,23.3340571 25.8914393,23.2460571 25.7908696,23.2014857 M19.6502699,12.5729143 C19.6502699,13.0174857 19.4643328,13.2654857 18.7088906,13.2654857 C17.9709895,13.2654857 13.407931,13.2563429 13.407931,13.2563429 C12.5870015,13.2437714 12.6103898,12.8003429 12.9156072,12.4837714 C13.2032834,12.1432 18.791919,6.3032 18.9953973,6.06548571 C19.3824738,5.62434286 19.7496702,5.64491429 19.7496702,6.2472 C19.7496702,6.86091429 19.6502699,12.2666286 19.6502699,12.5729143" id="Fill-8" fill="#FFFFFF" mask="url(#mask-4)"></path>
                </g>
                <path d="M84.9516694,55.8647706 C84.7017692,55.7703432 82.7438243,54.9368173 82.2263422,54.6931713 C81.6487425,54.4273757 81.6298822,53.9983721 81.6063067,53.6544699 C81.5862675,53.3408776 81.8998216,33.2371662 81.8125922,33.0727925 C81.7725139,32.984194 81.6487425,32.9702047 81.5461891,33.0657979 C81.217311,33.3863848 61.5789236,54.5544446 61.205252,54.7736095 C60.5027022,55.3191901 59.1412174,55.8064821 59.0587032,55.8519472 C58.9773677,55.888086 58.9773677,56 59.0787423,56 L69.4354573,56 C69.5792678,56 69.599307,55.8740968 69.5002899,55.8519472 C68.7329076,55.6980655 65.3934387,55.0160897 64.8170178,54.8458873 C64.2582786,54.6838452 64.1958035,54.359761 64.4032679,54.0578264 C64.6095535,53.7687154 69.8881068,47.3138444 70.2617784,47.0235675 C70.7580426,46.6575156 70.9643282,46.6085532 71.8071521,46.5992271 C72.0794491,46.5864036 73.6436832,46.5514305 75.1513361,46.5992271 C76.4090888,46.6213767 77.6079027,46.7262961 77.978038,46.7577719 C78.7619232,46.8172262 78.6794089,47.3977798 78.6794089,47.6950513 C78.6794089,47.9736704 78.4495479,52.7043669 78.4306875,53.5145774 C78.407112,54.3457717 78.2668378,54.4635145 77.7281377,54.6477063 C77.4428742,54.7281444 73.9136226,55.8519472 73.7886725,55.9230592 C73.6637224,55.9650269 73.8311084,56 73.8311084,56 L84.8278981,56 C84.9917478,56 85.0506865,55.9102357 84.9516694,55.8647706 M78.7619232,45.0231054 C78.7619232,45.4765901 78.5556376,45.7295623 77.8094732,45.7295623 C77.0692026,45.7295623 72.4472268,45.7202362 72.4472268,45.7202362 C71.6232633,45.7074127 71.6421237,45.2550937 71.9509626,44.9321753 C72.263338,44.5847757 77.8778421,38.6276887 78.0817701,38.3852085 C78.4919838,37.9352211 78.8444374,37.9562049 78.8444374,38.570566 C78.8444374,39.1965847 78.7619232,44.7106789 78.7619232,45.0231054" id="Fill-11" fill="#FFFFFF"></path>
                <path d="M108.737275,57.2418845 C108.737275,58.2090718 107.938093,59.0519389 106.693767,59.0519389 C105.876134,59.0519389 105.43099,58.683541 105.43099,58.1212493 C105.43099,57.6285313 105.805787,57.2589928 106.53347,57.1540621 L108.737275,56.8894543 L108.737275,57.2418845 Z M103.230644,53.79628 L104.969702,55.0269345 C105.306442,54.1829268 106.265922,53.9012107 107.190806,53.9012107 C108.239084,53.9012107 108.737275,54.2718898 108.737275,54.7817161 L108.737275,54.9220039 C108.737275,55.1318652 108.612727,55.2379365 108.274834,55.272153 L105.840384,55.4842955 C104.206269,55.6428321 103,56.6442358 103,58.2432883 C103,59.859449 104.243172,60.9817512 105.999528,60.9817512 C107.386853,60.9817512 108.274834,60.3145289 108.737275,59.6142306 L108.737275,60.8072469 L111.079467,60.8072469 L111.079467,55.3782242 C111.079467,52.9374452 109.7844,51.8140025 107.190806,51.8140025 C105.253394,51.8140025 103.816481,52.4812248 103.230644,53.79628 L103.230644,53.79628 Z M112.379148,54.5878224 C112.379148,56.5039481 114.012109,57.1015968 115.325628,57.3639235 C116.819049,57.6809967 117.298789,57.7870679 117.298789,58.2615371 C117.298789,58.7531146 116.766001,58.9287594 116.108665,58.9287594 C114.863186,58.9287594 113.887561,58.4896473 113.301725,57.7870679 L111.935158,59.5435164 C112.715888,60.5266713 114.171253,61 115.876867,61 C118.239818,61 119.712481,60.1400246 119.712481,58.1383576 C119.712481,56.2929461 118.418567,55.7124057 116.873251,55.3782242 C115.289878,55.0440428 114.810138,54.9379716 114.810138,54.5 C114.810138,54.1133532 115.219531,53.885243 115.948367,53.885243 C116.890549,53.885243 117.850029,54.2353922 118.347067,54.7817161 L119.659433,53.0937006 C118.878702,52.3055799 117.742779,51.7968942 116.125963,51.7968942 C113.799916,51.7968942 112.379148,52.8142657 112.379148,54.5878224 L112.379148,54.5878224 Z M120.745767,54.5878224 C120.745767,56.5039481 122.378728,57.1015968 123.692247,57.3639235 C125.185669,57.6809967 125.666562,57.7870679 125.666562,58.2615371 C125.666562,58.7531146 125.13262,58.9287594 124.475284,58.9287594 C123.229806,58.9287594 122.25418,58.4896473 121.668344,57.7870679 L120.301777,59.5435164 C121.082508,60.5266713 122.537873,61 124.243487,61 C126.606437,61 128.080254,60.1400246 128.080254,58.1383576 C128.080254,56.2929461 126.784033,55.7124057 125.241023,55.3782242 C123.656497,55.0440428 123.176757,54.9379716 123.176757,54.5 C123.176757,54.1133532 123.586151,53.885243 124.314987,53.885243 C125.257168,53.885243 126.216648,54.2353922 126.713687,54.7817161 L128.026052,53.0937006 C127.245322,52.3055799 126.109399,51.7968942 124.492583,51.7968942 C122.166536,51.7968942 120.745767,52.8142657 120.745767,54.5878224 L120.745767,54.5878224 Z M128.774493,56.3978768 C128.774493,59.1397614 130.815694,61 133.553441,61 C136.288882,61 138.330083,59.1397614 138.330083,56.3978768 C138.330083,53.6559923 136.288882,51.7968942 133.553441,51.7968942 C130.815694,51.7968942 128.774493,53.6559923 128.774493,56.3978768 L128.774493,56.3978768 Z M135.916391,56.3978768 C135.916391,57.8041762 134.885412,58.7360063 133.553441,58.7360063 C132.219164,58.7360063 131.188185,57.8041762 131.188185,56.3978768 C131.188185,54.9904369 132.219164,54.0608879 133.553441,54.0608879 C134.885412,54.0608879 135.916391,54.9904369 135.916391,56.3978768 L135.916391,56.3978768 Z M139.166169,56.3978768 C139.166169,59.1922267 141.154322,61 143.871311,61 C145.363579,61 146.536405,60.4548166 147.299838,59.6997719 L146.003617,57.8383927 C145.506579,58.3322513 144.813493,58.7360063 143.907061,58.7360063 C142.592389,58.7360063 141.579861,57.8041762 141.579861,56.3978768 C141.579861,54.9904369 142.57509,54.0608879 143.907061,54.0608879 C144.795041,54.0608879 145.452377,54.4475347 145.951722,54.9379716 L147.282539,53.0777329 C146.483357,52.2861906 145.327829,51.7968942 143.907061,51.7968942 C141.17162,51.7968942 139.166169,53.6217758 139.166169,56.3978768 L139.166169,56.3978768 Z M148.314672,49.4941218 C148.314672,50.3347078 148.95471,50.9688542 149.805787,50.9688542 C150.658018,50.9688542 151.315354,50.3347078 151.315354,49.4941218 C151.315354,48.6512546 150.658018,48 149.805787,48 C148.95471,48 148.314672,48.6512546 148.314672,49.4941218 L148.314672,49.4941218 Z M148.634114,60.7878575 L150.976307,60.7878575 L150.976307,52.0067556 L148.634114,52.0067556 L148.634114,60.7878575 Z M157.907166,57.2418845 C157.907166,58.2090718 157.10683,59.0519389 155.862505,59.0519389 C155.044871,59.0519389 154.600881,58.683541 154.600881,58.1212493 C154.600881,57.6285313 154.974524,57.2589928 155.70336,57.1540621 L157.907166,56.8894543 L157.907166,57.2418845 Z M152.400535,53.79628 L154.139592,55.0269345 C154.476333,54.1829268 155.436966,53.9012107 156.360696,53.9012107 C157.411281,53.9012107 157.907166,54.2718898 157.907166,54.7817161 L157.907166,54.9220039 C157.907166,55.1318652 157.782618,55.2379365 157.444724,55.272153 L155.010274,55.4842955 C153.37616,55.6428321 152.16989,56.6442358 152.16989,58.2432883 C152.16989,59.859449 153.41191,60.9817512 155.169419,60.9817512 C156.556744,60.9817512 157.444724,60.3145289 157.907166,59.6142306 L157.907166,60.8072469 L160.249358,60.8072469 L160.249358,55.3782242 C160.249358,52.9374452 158.954291,51.8140025 156.360696,51.8140025 C154.423285,51.8140025 152.986371,52.4812248 152.400535,53.79628 L152.400535,53.79628 Z M166.87692,60.6144938 L166.87692,58.4189331 C166.235729,58.5250044 165.935891,58.5592209 165.580699,58.5592209 C164.975258,58.5592209 164.691566,58.3322513 164.691566,57.7688191 L164.691566,53.9548166 L166.947266,53.9548166 L166.947266,52.0067556 L164.691566,52.0067556 L164.691566,49.6526584 L162.34822,49.6526584 L162.34822,52.0067556 L160.731404,52.0067556 L160.731404,53.9548166 L162.34822,53.9548166 L162.34822,58.1030005 C162.34822,60.1046675 163.306547,60.8768205 164.956807,60.8768205 C165.543796,60.8768205 166.218431,60.7718898 166.87692,60.6144938 L166.87692,60.6144938 Z M168.122399,49.4941218 C168.122399,50.3347078 168.76013,50.9688542 169.61236,50.9688542 C170.464591,50.9688542 171.120774,50.3347078 171.120774,49.4941218 C171.120774,48.6512546 170.464591,48 169.61236,48 C168.76013,48 168.122399,48.6512546 168.122399,49.4941218 L168.122399,49.4941218 Z M168.440688,60.7878575 L170.78288,60.7878575 L170.78288,52.0067556 L168.440688,52.0067556 L168.440688,60.7878575 Z M171.941867,56.3978768 C171.941867,59.1397614 173.981915,61 176.717356,61 C179.45395,61 181.495151,59.1397614 181.495151,56.3978768 C181.495151,53.6559923 179.45395,51.7968942 176.717356,51.7968942 C173.981915,51.7968942 171.941867,53.6559923 171.941867,56.3978768 L171.941867,56.3978768 Z M179.082613,56.3978768 C179.082613,57.8041762 178.05048,58.7360063 176.717356,58.7360063 C175.385386,58.7360063 174.354406,57.8041762 174.354406,56.3978768 C174.354406,54.9904369 175.385386,54.0608879 176.717356,54.0608879 C178.05048,54.0608879 179.082613,54.9904369 179.082613,56.3978768 L179.082613,56.3978768 Z M184.976726,53.2704861 L184.976726,52.0067556 L182.706033,52.0067556 L182.706033,60.7878575 L185.048226,60.7878575 L185.048226,56.5906299 C185.048226,55.0269345 185.617917,54.0255308 186.98679,54.0255308 C187.980867,54.0255308 188.602453,54.6037901 188.602453,55.9222671 L188.602453,60.7878575 L191,60.7878575 L191,55.3428672 C191,53.1301983 189.934424,51.7968942 187.856319,51.7968942 C186.558945,51.7968942 185.599465,52.4105106 184.976726,53.2704861 L184.976726,53.2704861 Z" id="Fill-13" fill="#000000"></path>
                <path d="M109.162153,41.1535017 L109.162153,38.8651088 C108.520262,38.9757224 108.2184,39.0114042 107.86218,39.0114042 C107.256142,39.0114042 106.970472,38.7735255 106.970472,38.1871546 L106.970472,34.209823 L109.23386,34.209823 L109.23386,32.1771497 L106.970472,32.1771497 L106.970472,29.7234311 L104.621498,29.7234311 L104.621498,32.1771497 L103,32.1771497 L103,34.209823 L104.621498,34.209823 L104.621498,38.5356468 C104.621498,40.6230323 105.582599,41.4270622 107.237637,41.4270622 C107.826326,41.4270622 108.502914,41.3188274 109.162153,41.1535017 L109.162153,41.1535017 Z M110.536147,28.513818 L110.536147,41.3366683 L112.885121,41.3366683 L112.885121,36.9573218 C112.885121,35.3266634 113.474967,34.282376 114.828142,34.282376 C115.862107,34.282376 116.450796,34.9412999 116.450796,36.2615266 L116.450796,41.3366683 L118.854129,41.3366683 L118.854129,35.6573148 C118.854129,33.3498916 117.785467,31.9594907 115.702502,31.9594907 C114.382867,31.9594907 113.474967,32.5625131 112.885121,33.4973763 L112.885121,28.513818 L110.536147,28.513818 Z M119.85224,36.7575037 C119.85224,39.4883509 121.615995,41.5567061 124.626521,41.5567061 C126.337074,41.5567061 127.441589,40.9703351 128.172535,40.3482824 L127.191772,38.3512908 C126.568386,38.9007906 125.731036,39.2873435 124.662375,39.2873435 C123.629566,39.2873435 122.559748,38.7533058 122.275234,37.5258518 L122.257886,37.4889806 L128.81327,37.4889806 L128.81327,36.8300567 C128.81327,33.880361 127.13857,31.9594907 124.413714,31.9594907 C121.615995,31.9594907 119.85224,34.0444973 119.85224,36.7575037 L119.85224,36.7575037 Z M126.248019,35.7310572 L122.240537,35.7310572 C122.470693,34.6320577 123.218987,34.0076261 124.342008,34.0076261 C125.482376,34.0076261 126.141615,34.7414818 126.248019,35.7310572 L126.248019,35.7310572 Z M139.716164,39.2136011 C138.397685,39.2136011 137.381069,38.2787378 137.381069,36.7575037 C137.381069,35.2541104 138.397685,34.3002169 139.716164,34.3002169 C141.053148,34.3002169 142.051259,35.2731407 142.051259,36.7575037 C142.051259,38.2418666 141.053148,39.2136011 139.716164,39.2136011 L139.716164,39.2136011 Z M137.452775,45 L137.452775,40.0188204 C138.058813,40.8977821 139.056924,41.574547 140.44711,41.574547 C142.620287,41.574547 144.47194,39.8546841 144.47194,36.7575037 C144.47194,33.6591338 142.620287,31.9404604 140.412413,31.9404604 C139.111283,31.9404604 138.095823,32.5256419 137.452775,33.4593157 L137.452775,32.1771497 L135.102645,32.1771497 L135.102645,45 L137.452775,45 Z M147.946247,33.6793535 L147.946247,32.1771497 L145.685172,32.1771497 L145.685172,41.3366683 L148.035302,41.3366683 L148.035302,37.1963898 C148.035302,35.4360876 148.729238,34.539285 150.279029,34.539285 C150.653755,34.539285 151.027324,34.5761562 151.348848,34.6867697 L151.348848,32.0867558 C151.063177,32.011824 150.796012,31.9594907 150.475644,31.9594907 C149.228872,31.9594907 148.42622,32.6160358 147.946247,33.6793535 L147.946247,33.6793535 Z M151.368509,36.7575037 C151.368509,39.615616 153.415621,41.5567061 156.158982,41.5567061 C158.903499,41.5567061 160.950611,39.615616 160.950611,36.7575037 C160.950611,33.8982019 158.903499,31.9594907 156.158982,31.9594907 C153.415621,31.9594907 151.368509,33.8982019 151.368509,36.7575037 L151.368509,36.7575037 Z M158.529931,36.7575037 C158.529931,38.2240257 157.495966,39.1957602 156.158982,39.1957602 C154.823155,39.1957602 153.78919,38.2240257 153.78919,36.7575037 C153.78919,35.2909816 154.823155,34.3192472 156.158982,34.3192472 C157.495966,34.3192472 158.529931,35.2909816 158.529931,36.7575037 L158.529931,36.7575037 Z M167.666757,34.209823 L167.666757,32.1771497 L165.13736,32.1771497 L165.13736,31.9749528 C165.13736,31.0222487 165.457727,30.5631428 166.402637,30.5631428 C166.812059,30.5631428 167.204133,30.6190443 167.756969,30.7106276 L167.756969,28.4769468 C167.16828,28.3853635 166.669802,28.3116211 166.010563,28.3116211 C164.176258,28.3116211 162.788386,29.3356888 162.788386,31.7192332 L162.788386,32.1771497 L160.989934,32.1771497 L160.989934,34.209823 L162.788386,34.209823 L162.788386,41.3366683 L165.13736,41.3366683 L165.13736,34.209823 L167.666757,34.209823 Z M167.792822,36.7575037 C167.792822,39.4883509 169.556577,41.5567061 172.567103,41.5567061 C174.277656,41.5567061 175.382171,40.9703351 176.113117,40.3482824 L175.13351,38.3512908 C174.508968,38.9007906 173.671618,39.2873435 172.604113,39.2873435 C171.570148,39.2873435 170.50033,38.7533058 170.215816,37.5258518 L170.198468,37.4889806 L176.753851,37.4889806 L176.753851,36.8300567 C176.753851,33.880361 175.080309,31.9594907 172.353139,31.9594907 C169.556577,31.9594907 167.792822,34.0444973 167.792822,36.7575037 L167.792822,36.7575037 Z M174.189757,35.7310572 L170.179963,35.7310572 C170.411275,34.6320577 171.159569,34.0076261 172.282589,34.0076261 C173.422958,34.0076261 174.082197,34.7414818 174.189757,35.7310572 L174.189757,35.7310572 Z M177.788973,34.8699363 C177.788973,36.8669279 179.425506,37.49017 180.743985,37.7637305 C182.24173,38.0955713 182.724016,38.2049955 182.724016,38.6997831 C182.724016,39.2136011 182.189685,39.3955783 181.528132,39.3955783 C180.280204,39.3955783 179.301754,38.9388512 178.714221,38.2049955 L177.342541,40.0366613 C178.126689,41.0619184 179.587424,41.5567061 181.297977,41.5567061 C183.666612,41.5567061 185.14354,40.6599034 185.14354,38.5713286 C185.14354,36.6468901 183.844723,36.0426782 182.294932,35.694186 C180.708131,35.3456937 180.227002,35.2350801 180.227002,34.7771636 C180.227002,34.3739593 180.637581,34.1360806 181.369684,34.1360806 C182.313437,34.1360806 183.274539,34.5024138 183.773016,35.0709438 L185.090338,33.3130204 C184.307347,32.4887707 183.168135,31.9594907 181.546637,31.9594907 C179.212699,31.9594907 177.788973,33.0204296 177.788973,34.8699363 L177.788973,34.8699363 Z M186.179818,34.8699363 C186.179818,36.8669279 187.816351,37.49017 189.13483,37.7637305 C190.632575,38.0955713 191.113704,38.2049955 191.113704,38.6997831 C191.113704,39.2136011 190.579373,39.3955783 189.920134,39.3955783 C188.671049,39.3955783 187.692599,38.9388512 187.105066,38.2049955 L185.735699,40.0366613 C186.517534,41.0619184 187.977113,41.5567061 189.687665,41.5567061 C192.057458,41.5567061 193.534385,40.6599034 193.534385,38.5713286 C193.534385,36.6468901 192.236724,36.0426782 190.685777,35.694186 C189.098976,35.3456937 188.617847,35.2350801 188.617847,34.7771636 C188.617847,34.3739593 189.028426,34.1360806 189.759372,34.1360806 C190.704282,34.1360806 191.66654,34.5024138 192.165018,35.0709438 L193.481183,33.3130204 C192.699349,32.4887707 191.55898,31.9594907 189.937482,31.9594907 C187.603544,31.9594907 186.179818,33.0204296 186.179818,34.8699363 L186.179818,34.8699363 Z M194.588012,29.556916 C194.588012,30.4346883 195.228746,31.0948017 196.083444,31.0948017 C196.939299,31.0948017 197.596225,30.4346883 197.596225,29.556916 C197.596225,28.6779542 196.939299,28 196.083444,28 C195.228746,28 194.588012,28.6779542 194.588012,29.556916 L194.588012,29.556916 Z M194.908379,41.3366683 L197.257353,41.3366683 L197.257353,32.1771497 L194.908379,32.1771497 L194.908379,41.3366683 Z M198.418539,36.7575037 C198.418539,39.615616 200.465651,41.5567061 203.209012,41.5567061 C205.95353,41.5567061 208.000642,39.615616 208.000642,36.7575037 C208.000642,33.8982019 205.95353,31.9594907 203.209012,31.9594907 C200.465651,31.9594907 198.418539,33.8982019 198.418539,36.7575037 L198.418539,36.7575037 Z M205.579961,36.7575037 C205.579961,38.2240257 204.545996,39.1957602 203.209012,39.1957602 C201.874342,39.1957602 200.83922,38.2240257 200.83922,36.7575037 C200.83922,35.2909816 201.874342,34.3192472 203.209012,34.3192472 C204.545996,34.3192472 205.579961,35.2909816 205.579961,36.7575037 L205.579961,36.7575037 Z M211.493454,33.4973763 L211.493454,32.1771497 L209.213873,32.1771497 L209.213873,41.3366683 L211.56516,41.3366683 L211.56516,36.9573218 C211.56516,35.3266634 212.134188,34.282376 213.507025,34.282376 C214.505137,34.282376 215.128523,34.8877772 215.128523,36.2615266 L215.128523,41.3366683 L217.531855,41.3366683 L217.531855,35.6573148 C217.531855,33.3498916 216.46435,31.9594907 214.380228,31.9594907 C213.079098,31.9594907 212.11684,32.5993843 211.493454,33.4973763 L211.493454,33.4973763 Z M224.606535,37.6376548 C224.606535,38.645071 223.803882,39.5252221 222.555953,39.5252221 C221.735952,39.5252221 221.290676,39.1398587 221.290676,38.5522983 C221.290676,38.0408592 221.665402,37.6554957 222.396348,37.5448821 L224.606535,37.2689428 L224.606535,37.6376548 Z M219.083959,34.0444973 L220.828052,35.3278528 C221.165768,34.4465123 222.129182,34.1539215 223.055587,34.1539215 C224.106901,34.1539215 224.606535,34.539285 224.606535,35.0709438 L224.606535,35.2172392 C224.606535,35.4360876 224.481626,35.5478906 224.142754,35.5835724 L221.701255,35.8036102 C220.062409,35.9689358 218.852647,37.0144126 218.852647,38.6819422 C218.852647,40.3673127 220.098262,41.5376758 221.86086,41.5376758 C223.252202,41.5376758 224.142754,40.84307 224.606535,40.1104037 L224.606535,41.3545092 L226.955509,41.3545092 L226.955509,35.694186 C226.955509,33.1488841 225.656691,31.9749528 223.055587,31.9749528 C221.112566,31.9749528 219.671492,32.6719373 219.083959,34.0444973 L219.083959,34.0444973 Z M228.632521,41.3366683 L231,41.3366683 L231,28.513818 L228.632521,28.513818 L228.632521,41.3366683 Z" id="Fill-15" fill="#000000"></path>
            </g>
        </g>
    </g>
</svg>